<svg width="40" height="40" viewBox="0 0 40 40" fill="none" xmlns="http://www.w3.org/2000/svg">
<g clip-path="url(#clip0_109_719)">
<path d="M5.81686 24.1201C6.09176 24.2119 6.31898 24.4091 6.4486 24.6684C6.57822 24.9276 6.59965 25.2276 6.5082 25.5027L5.41431 28.784C5.37311 28.9253 5.30383 29.0568 5.21062 29.1706C5.11742 29.2845 5.0022 29.3783 4.87186 29.4466C4.74152 29.5149 4.59874 29.5562 4.45207 29.568C4.3054 29.5799 4.15785 29.562 4.01826 29.5154C3.87866 29.4689 3.74989 29.3947 3.63965 29.2972C3.52941 29.1998 3.43996 29.0811 3.37667 28.9483C3.31337 28.8155 3.27752 28.6712 3.27128 28.5242C3.26503 28.3772 3.2885 28.2305 3.3403 28.0928L4.43419 24.8114C4.52604 24.5365 4.72324 24.3093 4.98249 24.1797C5.24173 24.0501 5.54182 24.0287 5.81686 24.1201ZM26.6007 24.1201C26.8756 24.2119 27.1028 24.4091 27.2325 24.6684C27.3621 24.9276 27.3835 25.2276 27.2921 25.5027L26.1982 28.784C26.0986 29.0488 25.9003 29.2648 25.6448 29.3864C25.3894 29.5081 25.0968 29.5261 24.8284 29.4367C24.56 29.3472 24.3367 29.1573 24.2054 28.9067C24.074 28.6561 24.0449 28.3643 24.1242 28.0928L25.2181 24.8114C25.3099 24.5365 25.5071 24.3093 25.7664 24.1797C26.0256 24.0501 26.3257 24.0287 26.6007 24.1201ZM10.1924 27.4015C10.4673 27.4933 10.6945 27.6905 10.8241 27.9497C10.9538 28.209 10.9752 28.509 10.8837 28.784L9.78986 32.0654C9.74866 32.2067 9.67938 32.3381 9.58617 32.452C9.49297 32.5659 9.37775 32.6597 9.24741 32.728C9.11707 32.7963 8.97429 32.8376 8.82762 32.8494C8.68095 32.8612 8.5334 32.8433 8.39381 32.7968C8.25421 32.7503 8.12544 32.6761 8.0152 32.5786C7.90496 32.4812 7.81551 32.3625 7.75222 32.2297C7.68892 32.0968 7.65308 31.9526 7.64683 31.8056C7.64058 31.6586 7.66405 31.5119 7.71585 31.3741L8.80974 28.0928C8.90159 27.8179 9.09879 27.5907 9.35804 27.4611C9.61728 27.3315 9.91737 27.31 10.1924 27.4015ZM30.9763 27.4015C31.2512 27.4933 31.4784 27.6905 31.608 27.9497C31.7376 28.209 31.7591 28.509 31.6676 28.784L30.5737 32.0654C30.4741 32.3302 30.2758 32.5461 30.0204 32.6678C29.765 32.7895 29.4723 32.8075 29.2039 32.7181C28.9355 32.6286 28.7122 32.4386 28.5809 32.188C28.4496 31.9374 28.4205 31.6457 28.4997 31.3741L29.5936 28.0928C29.6855 27.8179 29.8827 27.5907 30.1419 27.4611C30.4011 27.3315 30.7012 27.31 30.9763 27.4015ZM15.4321 24.667C15.5231 24.4855 15.6627 24.333 15.8354 24.2263C16.0081 24.1197 16.2071 24.0632 16.4101 24.0632H18.5978C18.7711 24.0634 18.9418 24.1046 19.096 24.1836C19.2501 24.2627 19.3833 24.3771 19.4846 24.5177C19.5858 24.6582 19.6523 24.8208 19.6784 24.9921C19.7045 25.1633 19.6896 25.3383 19.6348 25.5027L19.0223 27.3446H20.7856C20.9915 27.3449 21.193 27.4033 21.3672 27.513C21.5413 27.6227 21.681 27.7793 21.7701 27.9648C21.8592 28.1504 21.8942 28.3573 21.871 28.5618C21.8477 28.7663 21.7673 28.9601 21.6389 29.1209L17.2633 34.5899C17.1072 34.7838 16.8896 34.9187 16.6464 34.9722C16.4033 35.0257 16.1492 34.9947 15.926 34.8843C15.7029 34.7739 15.5241 34.5907 15.4192 34.3649C15.3143 34.1392 15.2895 33.8844 15.349 33.6427L16.1038 30.626H14.2223C14.0358 30.626 13.8523 30.5783 13.6894 30.4874C13.5265 30.3965 13.3895 30.2655 13.2916 30.1068C13.1936 29.9481 13.1378 29.767 13.1295 29.5806C13.1213 29.3943 13.1608 29.2089 13.2444 29.0422L15.4321 24.667ZM29.3289 8.80918C28.8746 6.51913 27.6995 4.43447 25.9755 2.85999C24.2514 1.28552 22.0689 0.303813 19.747 0.0584162C17.425 -0.186981 15.0855 0.3168 13.0703 1.4961C11.0552 2.6754 9.47028 4.46837 8.5472 6.61284C7.51203 6.4936 6.46341 6.58688 5.46554 6.88696C4.46768 7.18705 3.54156 7.68763 2.7439 8.35805C1.94624 9.02847 1.29382 9.85463 0.82659 10.7859C0.359355 11.7173 0.087138 12.7341 0.026604 13.7743C-0.0339299 14.8145 0.118494 15.8561 0.474542 16.8353C0.830591 17.8145 1.38277 18.7107 2.09728 19.4691C2.81179 20.2276 3.67358 20.8322 4.6299 21.246C5.58623 21.6598 6.61695 21.874 7.65897 21.8756H28.4428C30.108 21.8775 31.7116 21.2465 32.9288 20.1104C34.1461 18.9743 34.886 17.418 34.9986 15.7569C35.1113 14.0957 34.5883 12.4538 33.5355 11.1638C32.4828 9.87375 30.979 9.03205 29.3289 8.80918Z" fill="#005AFF"/>
</g>
<defs>
<clipPath id="clip0_109_719">
<rect width="40" height="40" fill="white"/>
</clipPath>
</defs>
</svg>
