<svg width="40" height="41" viewBox="0 0 40 41" fill="none" xmlns="http://www.w3.org/2000/svg">
<path d="M5.81686 25.1201C6.09176 25.2119 6.31898 25.4091 6.4486 25.6684C6.57822 25.9276 6.59965 26.2276 6.5082 26.5027L5.41431 29.784C5.37311 29.9253 5.30383 30.0568 5.21062 30.1706C5.11742 30.2845 5.0022 30.3783 4.87186 30.4466C4.74152 30.5149 4.59874 30.5562 4.45207 30.568C4.3054 30.5799 4.15785 30.562 4.01826 30.5154C3.87866 30.4689 3.74989 30.3947 3.63965 30.2972C3.52941 30.1998 3.43996 30.0811 3.37667 29.9483C3.31337 29.8155 3.27752 29.6712 3.27128 29.5242C3.26503 29.3772 3.2885 29.2305 3.3403 29.0928L4.43419 25.8114C4.52604 25.5365 4.72324 25.3093 4.98249 25.1797C5.24173 25.0501 5.54182 25.0287 5.81686 25.1201ZM26.6007 25.1201C26.8756 25.2119 27.1028 25.4091 27.2325 25.6684C27.3621 25.9276 27.3835 26.2276 27.2921 26.5027L26.1982 29.784C26.0986 30.0488 25.9003 30.2648 25.6448 30.3864C25.3894 30.5081 25.0968 30.5261 24.8284 30.4367C24.56 30.3472 24.3367 30.1573 24.2054 29.9067C24.074 29.6561 24.0449 29.3643 24.1242 29.0928L25.2181 25.8114C25.3099 25.5365 25.5071 25.3093 25.7664 25.1797C26.0256 25.0501 26.3257 25.0287 26.6007 25.1201ZM10.1924 28.4015C10.4673 28.4933 10.6945 28.6905 10.8241 28.9497C10.9538 29.209 10.9752 29.509 10.8837 29.784L9.78986 33.0654C9.74866 33.2067 9.67938 33.3381 9.58617 33.452C9.49297 33.5659 9.37775 33.6597 9.24741 33.728C9.11707 33.7963 8.97429 33.8376 8.82762 33.8494C8.68095 33.8612 8.5334 33.8433 8.39381 33.7968C8.25421 33.7503 8.12544 33.6761 8.0152 33.5786C7.90496 33.4812 7.81551 33.3625 7.75222 33.2297C7.68892 33.0968 7.65308 32.9526 7.64683 32.8056C7.64058 32.6586 7.66405 32.5119 7.71585 32.3741L8.80974 29.0928C8.90159 28.8179 9.09879 28.5907 9.35804 28.4611C9.61728 28.3315 9.91737 28.31 10.1924 28.4015ZM30.9763 28.4015C31.2512 28.4933 31.4784 28.6905 31.608 28.9497C31.7376 29.209 31.7591 29.509 31.6676 29.784L30.5737 33.0654C30.4741 33.3302 30.2758 33.5461 30.0204 33.6678C29.765 33.7895 29.4723 33.8075 29.2039 33.7181C28.9355 33.6286 28.7122 33.4386 28.5809 33.188C28.4496 32.9374 28.4205 32.6457 28.4997 32.3741L29.5936 29.0928C29.6855 28.8179 29.8827 28.5907 30.1419 28.4611C30.4011 28.3315 30.7012 28.31 30.9763 28.4015ZM15.4321 25.667C15.5231 25.4855 15.6627 25.333 15.8354 25.2263C16.0081 25.1197 16.2071 25.0632 16.4101 25.0632H18.5978C18.7711 25.0634 18.9418 25.1046 19.096 25.1836C19.2501 25.2627 19.3833 25.3771 19.4846 25.5177C19.5858 25.6582 19.6523 25.8208 19.6784 25.9921C19.7045 26.1633 19.6896 26.3383 19.6348 26.5027L19.0223 28.3446H20.7856C20.9915 28.3449 21.193 28.4033 21.3672 28.513C21.5413 28.6227 21.681 28.7793 21.7701 28.9648C21.8592 29.1504 21.8942 29.3573 21.871 29.5618C21.8477 29.7663 21.7673 29.9601 21.6389 30.1209L17.2633 35.5899C17.1072 35.7838 16.8896 35.9187 16.6464 35.9722C16.4033 36.0257 16.1492 35.9947 15.926 35.8843C15.7029 35.7739 15.5241 35.5907 15.4192 35.3649C15.3143 35.1392 15.2895 34.8844 15.349 34.6427L16.1038 31.626H14.2223C14.0358 31.626 13.8523 31.5783 13.6894 31.4874C13.5265 31.3965 13.3895 31.2655 13.2916 31.1068C13.1936 30.9481 13.1378 30.767 13.1295 30.5806C13.1213 30.3943 13.1608 30.2089 13.2444 30.0422L15.4321 25.667ZM29.3289 9.80918C28.8746 7.51913 27.6995 5.43447 25.9755 3.85999C24.2514 2.28552 22.0689 1.30381 19.747 1.05842C17.425 0.813019 15.0855 1.3168 13.0703 2.4961C11.0552 3.6754 9.47028 5.46837 8.5472 7.61284C7.51203 7.4936 6.46341 7.58688 5.46554 7.88696C4.46768 8.18705 3.54156 8.68763 2.7439 9.35805C1.94624 10.0285 1.29382 10.8546 0.82659 11.7859C0.359355 12.7173 0.087138 13.7341 0.026604 14.7743C-0.0339299 15.8145 0.118494 16.8561 0.474542 17.8353C0.830591 18.8145 1.38277 19.7107 2.09728 20.4691C2.81179 21.2276 3.67358 21.8322 4.6299 22.246C5.58623 22.6598 6.61695 22.874 7.65897 22.8756H28.4428C30.108 22.8775 31.7116 22.2465 32.9288 21.1104C34.1461 19.9743 34.886 18.418 34.9986 16.7569C35.1113 15.0957 34.5883 13.4538 33.5355 12.1638C32.4828 10.8737 30.979 10.0321 29.3289 9.80918Z" fill="#005AFF"/>
</svg>
