<svg width="40" height="40" viewBox="0 0 40 40" fill="none" xmlns="http://www.w3.org/2000/svg">
<path d="M30.625 20C30.625 22.1014 30.0019 24.1557 28.8344 25.9029C27.6669 27.6502 26.0075 29.012 24.066 29.8162C22.1245 30.6204 19.9882 30.8308 17.9272 30.4208C15.8661 30.0109 13.9729 28.9989 12.487 27.513C11.0011 26.0271 9.98912 24.1339 9.57916 22.0728C9.16919 20.0118 9.3796 17.8755 10.1838 15.934C10.988 13.9925 12.3498 12.3331 14.0971 11.1656C15.8443 9.99815 17.8986 9.375 20 9.375C22.8167 9.37913 25.5168 10.4999 27.5084 12.4916C29.5001 14.4832 30.6209 17.1833 30.625 20ZM20 6.875C20.3315 6.875 20.6495 6.7433 20.8839 6.50888C21.1183 6.27446 21.25 5.95652 21.25 5.625V4.375C21.25 4.04348 21.1183 3.72554 20.8839 3.49112C20.6495 3.2567 20.3315 3.125 20 3.125C19.6685 3.125 19.3505 3.2567 19.1161 3.49112C18.8817 3.72554 18.75 4.04348 18.75 4.375V5.625C18.75 5.95652 18.8817 6.27446 19.1161 6.50888C19.3505 6.7433 19.6685 6.875 20 6.875ZM8.95312 10.7187C9.18942 10.9488 9.50617 11.0775 9.83594 11.0775C10.1657 11.0775 10.4825 10.9488 10.7187 10.7187C10.9525 10.4844 11.0838 10.1669 11.0838 9.83594C11.0838 9.50494 10.9525 9.18746 10.7187 8.95312L9.82813 8.0625C9.59034 7.84705 9.27882 7.73129 8.95804 7.73919C8.63727 7.74709 8.33182 7.87804 8.10493 8.10493C7.87804 8.33182 7.74709 8.63727 7.73919 8.95804C7.73129 9.27882 7.84705 9.59034 8.0625 9.82813L8.95312 10.7187ZM5.625 18.75H4.375C4.04348 18.75 3.72554 18.8817 3.49112 19.1161C3.2567 19.3505 3.125 19.6685 3.125 20C3.125 20.3315 3.2567 20.6495 3.49112 20.8839C3.72554 21.1183 4.04348 21.25 4.375 21.25H5.625C5.95652 21.25 6.27446 21.1183 6.50888 20.8839C6.7433 20.6495 6.875 20.3315 6.875 20C6.875 19.6685 6.7433 19.3505 6.50888 19.1161C6.27446 18.8817 5.95652 18.75 5.625 18.75ZM8.95312 29.2812L8.0625 30.1719C7.82873 30.4062 7.69745 30.7237 7.69745 31.0547C7.69745 31.3857 7.82873 31.7032 8.0625 31.9375C8.30245 32.1669 8.6212 32.2955 8.95312 32.2969C9.28061 32.2963 9.59479 32.1673 9.82813 31.9375L10.7187 31.0469C10.9342 30.8091 11.05 30.4976 11.0421 30.1768C11.0342 29.856 10.9032 29.5506 10.6763 29.3237C10.4494 29.0968 10.144 28.9658 9.82321 28.9579C9.50243 28.95 9.19091 29.0658 8.95312 29.2812ZM20 33.125C19.6685 33.125 19.3505 33.2567 19.1161 33.4911C18.8817 33.7255 18.75 34.0435 18.75 34.375V35.625C18.75 35.9565 18.8817 36.2745 19.1161 36.5089C19.3505 36.7433 19.6685 36.875 20 36.875C20.3315 36.875 20.6495 36.7433 20.8839 36.5089C21.1183 36.2745 21.25 35.9565 21.25 35.625V34.375C21.25 34.0435 21.1183 33.7255 20.8839 33.4911C20.6495 33.2567 20.3315 33.125 20 33.125ZM31.0469 29.2812C30.8091 29.0658 30.4976 28.95 30.1768 28.9579C29.856 28.9658 29.5506 29.0968 29.3237 29.3237C29.0968 29.5506 28.9658 29.856 28.9579 30.1768C28.95 30.4976 29.0658 30.8091 29.2812 31.0469L30.1719 31.9375C30.4052 32.1673 30.7194 32.2963 31.0469 32.2969C31.3788 32.2955 31.6976 32.1669 31.9375 31.9375C32.1713 31.7032 32.3025 31.3857 32.3025 31.0547C32.3025 30.7237 32.1713 30.4062 31.9375 30.1719L31.0469 29.2812ZM35.625 18.75H34.375C34.0435 18.75 33.7255 18.8817 33.4911 19.1161C33.2567 19.3505 33.125 19.6685 33.125 20C33.125 20.3315 33.2567 20.6495 33.4911 20.8839C33.7255 21.1183 34.0435 21.25 34.375 21.25H35.625C35.9565 21.25 36.2745 21.1183 36.5089 20.8839C36.7433 20.6495 36.875 20.3315 36.875 20C36.875 19.6685 36.7433 19.3505 36.5089 19.1161C36.2745 18.8817 35.9565 18.75 35.625 18.75ZM30.1719 11.0781C30.3343 11.0796 30.4954 11.0485 30.6457 10.9868C30.7959 10.9251 30.9323 10.8339 31.0469 10.7187L31.9375 9.82813C32.063 9.71443 32.1641 9.57642 32.2346 9.42248C32.3051 9.26853 32.3436 9.10186 32.3478 8.93258C32.352 8.7633 32.3217 8.59494 32.2588 8.43771C32.196 8.28048 32.1018 8.13767 31.9821 8.01793C31.8623 7.8982 31.7195 7.80404 31.5623 7.74117C31.4051 7.67829 31.2367 7.64803 31.0674 7.65219C30.8981 7.65636 30.7315 7.69488 30.5775 7.76541C30.4236 7.83594 30.2856 7.93702 30.1719 8.0625L29.2812 8.95312C29.0475 9.18746 28.9162 9.50494 28.9162 9.83594C28.9162 10.1669 29.0475 10.4844 29.2812 10.7187C29.3976 10.8359 29.5366 10.9281 29.6897 10.9899C29.8428 11.0516 30.0068 11.0817 30.1719 11.0781Z" fill="#FFC700"/>
</svg>
