<svg width="40" height="40" viewBox="0 0 40 40" fill="none" xmlns="http://www.w3.org/2000/svg">
<path d="M31.6435 20.625C31.6435 22.8043 30.9973 24.9346 29.7866 26.7466C28.5758 28.5585 26.855 29.9708 24.8416 30.8048C22.8282 31.6387 20.6128 31.857 18.4754 31.4318C16.338 31.0066 14.3747 29.9572 12.8337 28.4163C11.2928 26.8753 10.2434 24.912 9.8182 22.7746C9.39305 20.6372 9.61125 18.4218 10.4452 16.4084C11.2792 14.395 12.6915 12.6742 14.5034 11.4634C16.3154 10.2527 18.4457 9.60648 20.625 9.60648C23.546 9.61077 26.3461 10.773 28.4115 12.8385C30.477 14.9039 31.6392 17.704 31.6435 20.625ZM20.625 7.01389C20.9688 7.01389 21.2985 6.87731 21.5416 6.63421C21.7847 6.39111 21.9213 6.06139 21.9213 5.71759V4.4213C21.9213 4.0775 21.7847 3.74778 21.5416 3.50468C21.2985 3.26157 20.9688 3.125 20.625 3.125C20.2812 3.125 19.9515 3.26157 19.7084 3.50468C19.4653 3.74778 19.3287 4.0775 19.3287 4.4213V5.71759C19.3287 6.06139 19.4653 6.39111 19.7084 6.63421C19.9515 6.87731 20.2812 7.01389 20.625 7.01389ZM9.16898 11C9.41403 11.2385 9.74251 11.372 10.0845 11.372C10.4265 11.372 10.755 11.2385 11 11C11.2424 10.757 11.3786 10.4277 11.3786 10.0845C11.3786 9.74124 11.2424 9.41199 11 9.16898L10.0764 8.24537C9.8298 8.02194 9.50674 7.90189 9.17408 7.91008C8.84143 7.91828 8.52466 8.05408 8.28937 8.28937C8.05408 8.52466 7.91828 8.84143 7.91008 9.17408C7.90189 9.50674 8.02194 9.8298 8.24537 10.0764L9.16898 11ZM5.71759 19.3287H4.4213C4.0775 19.3287 3.74778 19.4653 3.50468 19.7084C3.26157 19.9515 3.125 20.2812 3.125 20.625C3.125 20.9688 3.26157 21.2985 3.50468 21.5416C3.74778 21.7847 4.0775 21.9213 4.4213 21.9213H5.71759C6.06139 21.9213 6.39111 21.7847 6.63421 21.5416C6.87731 21.2985 7.01389 20.9688 7.01389 20.625C7.01389 20.2812 6.87731 19.9515 6.63421 19.7084C6.39111 19.4653 6.06139 19.3287 5.71759 19.3287ZM9.16898 30.25L8.24537 31.1736C8.00295 31.4166 7.8668 31.7459 7.8668 32.0891C7.8668 32.4324 8.00295 32.7616 8.24537 33.0046C8.4942 33.2425 8.82476 33.3759 9.16898 33.3773C9.50859 33.3767 9.83442 33.2429 10.0764 33.0046L11 32.081C11.2234 31.8344 11.3435 31.5114 11.3353 31.1787C11.3271 30.8461 11.1913 30.5293 10.956 30.294C10.7207 30.0587 10.4039 29.9229 10.0713 29.9147C9.73863 29.9065 9.41557 30.0266 9.16898 30.25ZM20.625 34.2361C20.2812 34.2361 19.9515 34.3727 19.7084 34.6158C19.4653 34.8589 19.3287 35.1886 19.3287 35.5324V36.8287C19.3287 37.1725 19.4653 37.5022 19.7084 37.7453C19.9515 37.9884 20.2812 38.125 20.625 38.125C20.9688 38.125 21.2985 37.9884 21.5416 37.7453C21.7847 37.5022 21.9213 37.1725 21.9213 36.8287V35.5324C21.9213 35.1886 21.7847 34.8589 21.5416 34.6158C21.2985 34.3727 20.9688 34.2361 20.625 34.2361ZM32.081 30.25C31.8344 30.0266 31.5114 29.9065 31.1787 29.9147C30.8461 29.9229 30.5293 30.0587 30.294 30.294C30.0587 30.5293 29.9229 30.8461 29.9147 31.1787C29.9065 31.5114 30.0266 31.8344 30.25 32.081L31.1736 33.0046C31.4156 33.2429 31.7414 33.3767 32.081 33.3773C32.4252 33.3759 32.7558 33.2425 33.0046 33.0046C33.2471 32.7616 33.3832 32.4324 33.3832 32.0891C33.3832 31.7459 33.2471 31.4166 33.0046 31.1736L32.081 30.25ZM36.8287 19.3287H35.5324C35.1886 19.3287 34.8589 19.4653 34.6158 19.7084C34.3727 19.9515 34.2361 20.2812 34.2361 20.625C34.2361 20.9688 34.3727 21.2985 34.6158 21.5416C34.8589 21.7847 35.1886 21.9213 35.5324 21.9213H36.8287C37.1725 21.9213 37.5022 21.7847 37.7453 21.5416C37.9884 21.2985 38.125 20.9688 38.125 20.625C38.125 20.2812 37.9884 19.9515 37.7453 19.7084C37.5022 19.4653 37.1725 19.3287 36.8287 19.3287ZM31.1736 11.3727C31.3421 11.3742 31.5091 11.342 31.6649 11.278C31.8208 11.214 31.9622 11.1195 32.081 11L33.0046 10.0764C33.1348 9.95848 33.2396 9.81536 33.3127 9.65571C33.3859 9.49607 33.4258 9.32323 33.4301 9.14768C33.4345 8.97213 33.4031 8.79753 33.3379 8.63448C33.2727 8.47143 33.175 8.32332 33.0508 8.19915C32.9267 8.07498 32.7786 7.97733 32.6155 7.91213C32.4525 7.84694 32.2779 7.81554 32.1023 7.81987C31.9268 7.82419 31.7539 7.86413 31.5943 7.93728C31.4346 8.01042 31.2915 8.11524 31.1736 8.24537L30.25 9.16898C30.0076 9.41199 29.8714 9.74124 29.8714 10.0845C29.8714 10.4277 30.0076 10.757 30.25 11C30.3707 11.1214 30.5148 11.2171 30.6735 11.2812C30.8323 11.3452 31.0024 11.3764 31.1736 11.3727Z" fill="#FFC700"/>
</svg>
